<svg width="42" height="42" viewBox="0 0 42 42" fill="none" xmlns="http://www.w3.org/2000/svg">
<g filter="url(#filter0_d_3807_11641)">
<rect x="6" y="4" width="30" height="30" rx="15" fill="white"/>
<path d="M19.9453 19.8311L18.6367 19.5234L19.0664 15.8906H23.2217V17.1699H20.4092L20.248 18.5811C20.3262 18.5355 20.458 18.4818 20.6436 18.4199C20.8324 18.3548 21.0407 18.3223 21.2686 18.3223C21.6201 18.3223 21.931 18.376 22.2012 18.4834C22.4746 18.5876 22.7057 18.7422 22.8945 18.9473C23.0833 19.1491 23.2249 19.3981 23.3193 19.6943C23.417 19.9906 23.4658 20.3291 23.4658 20.71C23.4658 21.016 23.4154 21.3122 23.3145 21.5986C23.2168 21.8818 23.0654 22.1374 22.8604 22.3652C22.6585 22.5898 22.403 22.7689 22.0938 22.9023C21.7845 23.0326 21.4183 23.0977 20.9951 23.0977C20.6794 23.0977 20.3717 23.0488 20.0723 22.9512C19.7728 22.8535 19.5026 22.7135 19.2617 22.5312C19.0241 22.3457 18.8353 22.1227 18.6953 21.8623C18.5586 21.5986 18.4919 21.304 18.4951 20.9785H20.1504C20.1602 21.151 20.2008 21.3008 20.2725 21.4277C20.3441 21.5547 20.4401 21.654 20.5605 21.7256C20.6842 21.7939 20.8258 21.8281 20.9854 21.8281C21.1481 21.8281 21.2832 21.7956 21.3906 21.7305C21.498 21.6654 21.5827 21.5758 21.6445 21.4619C21.7064 21.348 21.7503 21.2178 21.7764 21.0713C21.8024 20.9215 21.8154 20.7637 21.8154 20.5977C21.8154 20.4219 21.7959 20.264 21.7568 20.124C21.721 19.984 21.6624 19.8652 21.5811 19.7676C21.4997 19.6667 21.3939 19.5902 21.2637 19.5381C21.1367 19.486 20.9837 19.46 20.8047 19.46C20.5671 19.46 20.3799 19.5007 20.2432 19.582C20.1064 19.6634 20.0072 19.7464 19.9453 19.8311Z" fill="#6B7A99"/>
<rect x="6" y="4" width="30" height="30" rx="15" stroke="#F5F6F7" stroke-width="2"/>
</g>
<defs>
<filter id="filter0_d_3807_11641" x="0" y="0" width="42" height="42" filterUnits="userSpaceOnUse" color-interpolation-filters="sRGB">
<feFlood flood-opacity="0" result="BackgroundImageFix"/>
<feColorMatrix in="SourceAlpha" type="matrix" values="0 0 0 0 0 0 0 0 0 0 0 0 0 0 0 0 0 0 127 0" result="hardAlpha"/>
<feOffset dy="2"/>
<feGaussianBlur stdDeviation="2.5"/>
<feColorMatrix type="matrix" values="0 0 0 0 0.14902 0 0 0 0 0.2 0 0 0 0 0.301961 0 0 0 0.03 0"/>
<feBlend mode="normal" in2="BackgroundImageFix" result="effect1_dropShadow_3807_11641"/>
<feBlend mode="normal" in="SourceGraphic" in2="effect1_dropShadow_3807_11641" result="shape"/>
</filter>
</defs>
</svg>
