<svg width="50" height="50" viewBox="0 0 50 50" fill="none" xmlns="http://www.w3.org/2000/svg">
<g filter="url(#filter0_d_3807_11880)">
<rect x="5" y="3" width="40" height="40" rx="20" fill="white"/>
<path fill-rule="evenodd" clip-rule="evenodd" d="M19.4 21.1333C18.3733 21.1333 17.5333 21.9733 17.5333 23C17.5333 24.0267 18.3733 24.8667 19.4 24.8667C20.4267 24.8667 21.2667 24.0267 21.2667 23C21.2667 21.9733 20.4267 21.1333 19.4 21.1333ZM30.6 21.1333C29.5733 21.1333 28.7333 21.9733 28.7333 23C28.7333 24.0267 29.5733 24.8667 30.6 24.8667C31.6267 24.8667 32.4667 24.0267 32.4667 23C32.4667 21.9733 31.6267 21.1333 30.6 21.1333ZM25 21.1333C23.9733 21.1333 23.1333 21.9733 23.1333 23C23.1333 24.0267 23.9733 24.8667 25 24.8667C26.0267 24.8667 26.8667 24.0267 26.8667 23C26.8667 21.9733 26.0267 21.1333 25 21.1333Z" fill="#C3CAD9"/>
</g>
<defs>
<filter id="filter0_d_3807_11880" x="0" y="0" width="50" height="50" filterUnits="userSpaceOnUse" color-interpolation-filters="sRGB">
<feFlood flood-opacity="0" result="BackgroundImageFix"/>
<feColorMatrix in="SourceAlpha" type="matrix" values="0 0 0 0 0 0 0 0 0 0 0 0 0 0 0 0 0 0 127 0" result="hardAlpha"/>
<feOffset dy="2"/>
<feGaussianBlur stdDeviation="2.5"/>
<feColorMatrix type="matrix" values="0 0 0 0 0.14902 0 0 0 0 0.2 0 0 0 0 0.301961 0 0 0 0.03 0"/>
<feBlend mode="normal" in2="BackgroundImageFix" result="effect1_dropShadow_3807_11880"/>
<feBlend mode="normal" in="SourceGraphic" in2="effect1_dropShadow_3807_11880" result="shape"/>
</filter>
</defs>
</svg>
