<svg width="96" height="14" viewBox="0 0 96 14" fill="none" xmlns="http://www.w3.org/2000/svg">
<path d="M11.1885 8.7373C11.0889 10.1143 10.5791 11.1982 9.65918 11.9893C8.74512 12.7803 7.53809 13.1758 6.03809 13.1758C4.39746 13.1758 3.10547 12.625 2.16211 11.5234C1.22461 10.416 0.755859 8.89844 0.755859 6.9707V6.18848C0.755859 4.95801 0.972656 3.87402 1.40625 2.93652C1.83984 1.99902 2.45801 1.28125 3.26074 0.783203C4.06934 0.279297 5.00684 0.0273438 6.07324 0.0273438C7.5498 0.0273438 8.73926 0.422852 9.6416 1.21387C10.5439 2.00488 11.0654 3.11523 11.2061 4.54492H8.56934C8.50488 3.71875 8.27344 3.12109 7.875 2.75195C7.48242 2.37695 6.88184 2.18945 6.07324 2.18945C5.19434 2.18945 4.53516 2.50586 4.0957 3.13867C3.66211 3.76562 3.43945 4.74121 3.42773 6.06543V7.03223C3.42773 8.41504 3.63574 9.42578 4.05176 10.0645C4.47363 10.7031 5.13574 11.0225 6.03809 11.0225C6.85254 11.0225 7.45898 10.8379 7.85742 10.4688C8.26172 10.0938 8.49316 9.5166 8.55176 8.7373H11.1885ZM12.3574 8.15723C12.3574 7.21387 12.5391 6.37305 12.9023 5.63477C13.2656 4.89648 13.7871 4.3252 14.4668 3.9209C15.1523 3.5166 15.9463 3.31445 16.8486 3.31445C18.1318 3.31445 19.1777 3.70703 19.9863 4.49219C20.8008 5.27734 21.2549 6.34375 21.3486 7.69141L21.3662 8.3418C21.3662 9.80078 20.959 10.9727 20.1445 11.8574C19.3301 12.7363 18.2373 13.1758 16.8662 13.1758C15.4951 13.1758 14.3994 12.7363 13.5791 11.8574C12.7646 10.9785 12.3574 9.7832 12.3574 8.27148V8.15723ZM14.8975 8.3418C14.8975 9.24414 15.0674 9.93555 15.4072 10.416C15.7471 10.8906 16.2334 11.1279 16.8662 11.1279C17.4814 11.1279 17.9619 10.8936 18.3076 10.4248C18.6533 9.9502 18.8262 9.19434 18.8262 8.15723C18.8262 7.27246 18.6533 6.58691 18.3076 6.10059C17.9619 5.61426 17.4756 5.37109 16.8486 5.37109C16.2275 5.37109 15.7471 5.61426 15.4072 6.10059C15.0674 6.58105 14.8975 7.32812 14.8975 8.3418ZM25.2686 3.49023L25.3477 4.58887C26.0273 3.73926 26.9385 3.31445 28.0811 3.31445C29.0889 3.31445 29.8389 3.61035 30.3311 4.20215C30.8232 4.79395 31.0752 5.67871 31.0869 6.85645V13H28.5469V6.91797C28.5469 6.37891 28.4297 5.98926 28.1953 5.74902C27.9609 5.50293 27.5713 5.37988 27.0264 5.37988C26.3115 5.37988 25.7754 5.68457 25.418 6.29395V13H22.8779V3.49023H25.2686ZM38.1709 10.3721C38.1709 10.0615 38.0156 9.81836 37.7051 9.64258C37.4004 9.46094 36.9082 9.2998 36.2285 9.15918C33.9668 8.68457 32.8359 7.72363 32.8359 6.27637C32.8359 5.43262 33.1846 4.72949 33.8818 4.16699C34.585 3.59863 35.502 3.31445 36.6328 3.31445C37.8398 3.31445 38.8037 3.59863 39.5244 4.16699C40.251 4.73535 40.6143 5.47363 40.6143 6.38184H38.0742C38.0742 6.01855 37.957 5.71973 37.7227 5.48535C37.4883 5.24512 37.1221 5.125 36.624 5.125C36.1963 5.125 35.8652 5.22168 35.6309 5.41504C35.3965 5.6084 35.2793 5.85449 35.2793 6.15332C35.2793 6.43457 35.4111 6.66309 35.6748 6.83887C35.9443 7.00879 36.3955 7.1582 37.0283 7.28711C37.6611 7.41016 38.1943 7.55078 38.6279 7.70898C39.9697 8.20117 40.6406 9.05371 40.6406 10.2666C40.6406 11.1338 40.2686 11.8369 39.5244 12.376C38.7803 12.9092 37.8193 13.1758 36.6416 13.1758C35.8447 13.1758 35.1357 13.0352 34.5146 12.7539C33.8994 12.4668 33.416 12.0771 33.0645 11.585C32.7129 11.0869 32.5371 10.5508 32.5371 9.97656H34.9453C34.9688 10.4277 35.1357 10.7734 35.4463 11.0137C35.7568 11.2539 36.1729 11.374 36.6943 11.374C37.1807 11.374 37.5469 11.2832 37.793 11.1016C38.0449 10.9141 38.1709 10.6709 38.1709 10.3721ZM45.3252 1.15234V3.49023H46.9512V5.35352H45.3252V10.0996C45.3252 10.4512 45.3926 10.7031 45.5273 10.8555C45.6621 11.0078 45.9199 11.084 46.3008 11.084C46.582 11.084 46.8311 11.0635 47.0479 11.0225V12.9473C46.5498 13.0996 46.0371 13.1758 45.5098 13.1758C43.7285 13.1758 42.8203 12.2764 42.7852 10.4775V5.35352H41.3965V3.49023H42.7852V1.15234H45.3252ZM53.71 5.87207C53.3643 5.8252 53.0596 5.80176 52.7959 5.80176C51.835 5.80176 51.2051 6.12695 50.9062 6.77734V13H48.3662V3.49023H50.7656L50.8359 4.62402C51.3457 3.75098 52.0518 3.31445 52.9541 3.31445C53.2354 3.31445 53.499 3.35254 53.7451 3.42871L53.71 5.87207ZM60.6357 12.0332C60.0088 12.7949 59.1416 13.1758 58.0342 13.1758C57.0146 13.1758 56.2354 12.8828 55.6963 12.2969C55.1631 11.7109 54.8906 10.8525 54.8789 9.72168V3.49023H57.4189V9.63379C57.4189 10.624 57.8701 11.1191 58.7725 11.1191C59.6338 11.1191 60.2256 10.8203 60.5479 10.2227V3.49023H63.0967V13H60.7061L60.6357 12.0332ZM68.9678 11.1279C69.4365 11.1279 69.8174 10.999 70.1104 10.7412C70.4033 10.4834 70.5557 10.1406 70.5674 9.71289H72.9492C72.9434 10.3574 72.7676 10.9492 72.4219 11.4883C72.0762 12.0215 71.6016 12.4375 70.998 12.7363C70.4004 13.0293 69.7383 13.1758 69.0117 13.1758C67.6523 13.1758 66.5801 12.7451 65.7949 11.8838C65.0098 11.0166 64.6172 9.82129 64.6172 8.29785V8.13086C64.6172 6.66602 65.0068 5.49707 65.7861 4.62402C66.5654 3.75098 67.6348 3.31445 68.9941 3.31445C70.1836 3.31445 71.1357 3.6543 71.8506 4.33398C72.5713 5.00781 72.9375 5.90723 72.9492 7.03223H70.5674C70.5557 6.54004 70.4033 6.1416 70.1104 5.83691C69.8174 5.52637 69.4307 5.37109 68.9502 5.37109C68.3584 5.37109 67.9102 5.58789 67.6055 6.02148C67.3066 6.44922 67.1572 7.14648 67.1572 8.11328V8.37695C67.1572 9.35547 67.3066 10.0586 67.6055 10.4863C67.9043 10.9141 68.3584 11.1279 68.9678 11.1279ZM77.4404 1.15234V3.49023H79.0664V5.35352H77.4404V10.0996C77.4404 10.4512 77.5078 10.7031 77.6426 10.8555C77.7773 11.0078 78.0352 11.084 78.416 11.084C78.6973 11.084 78.9463 11.0635 79.1631 11.0225V12.9473C78.665 13.0996 78.1523 13.1758 77.625 13.1758C75.8438 13.1758 74.9355 12.2764 74.9004 10.4775V5.35352H73.5117V3.49023H74.9004V1.15234H77.4404ZM79.8223 8.15723C79.8223 7.21387 80.0039 6.37305 80.3672 5.63477C80.7305 4.89648 81.252 4.3252 81.9316 3.9209C82.6172 3.5166 83.4111 3.31445 84.3135 3.31445C85.5967 3.31445 86.6426 3.70703 87.4512 4.49219C88.2656 5.27734 88.7197 6.34375 88.8135 7.69141L88.8311 8.3418C88.8311 9.80078 88.4238 10.9727 87.6094 11.8574C86.7949 12.7363 85.7021 13.1758 84.3311 13.1758C82.96 13.1758 81.8643 12.7363 81.0439 11.8574C80.2295 10.9785 79.8223 9.7832 79.8223 8.27148V8.15723ZM82.3623 8.3418C82.3623 9.24414 82.5322 9.93555 82.8721 10.416C83.2119 10.8906 83.6982 11.1279 84.3311 11.1279C84.9463 11.1279 85.4268 10.8936 85.7725 10.4248C86.1182 9.9502 86.291 9.19434 86.291 8.15723C86.291 7.27246 86.1182 6.58691 85.7725 6.10059C85.4268 5.61426 84.9404 5.37109 84.3135 5.37109C83.6924 5.37109 83.2119 5.61426 82.8721 6.10059C82.5322 6.58105 82.3623 7.32812 82.3623 8.3418ZM95.7393 5.87207C95.3936 5.8252 95.0889 5.80176 94.8252 5.80176C93.8643 5.80176 93.2344 6.12695 92.9355 6.77734V13H90.3955V3.49023H92.7949L92.8652 4.62402C93.375 3.75098 94.0811 3.31445 94.9834 3.31445C95.2646 3.31445 95.5283 3.35254 95.7744 3.42871L95.7393 5.87207Z" fill="#4D5E80"/>
</svg>
